<svg width="79" height="80" viewBox="0 0 79 80" fill="none" xmlns="http://www.w3.org/2000/svg">
<path d="M65.8333 14.1392H19.75C16.1193 14.1392 13.1666 17.0918 13.1666 20.7225V37.1808H19.75V27.3058L40.8166 43.1058C41.3866 43.5327 42.0795 43.7633 42.7916 43.7633C43.5037 43.7633 44.1966 43.5327 44.7666 43.1058L65.8333 27.3058V56.9308H39.5V63.5142H65.8333C69.464 63.5142 72.4166 60.5615 72.4166 56.9308V20.7225C72.4166 17.0918 69.464 14.1392 65.8333 14.1392ZM42.7916 36.3579L21.9422 20.7225H63.641L42.7916 36.3579Z" fill="#FE724D"/>
<path d="M6.58337 40.4727H29.625V47.056H6.58337V40.4727ZM13.1667 50.3477H32.9167V56.931H13.1667V50.3477ZM23.0417 60.2227H36.2084V66.806H23.0417V60.2227Z" fill="#FE724D"/>
</svg>
