<svg width="35" height="36" viewBox="0 0 35 36" fill="none" xmlns="http://www.w3.org/2000/svg">
<g clip-path="url(#clip0_3556_18996)">
<path d="M17.7566 0.935547C8.25013 0.935547 0.514648 8.8018 0.514648 18.4727C0.514648 28.1437 8.25013 36.0099 17.7566 36.0099C27.263 36.0099 34.9985 28.1437 34.9985 18.4727C34.9985 8.8018 27.263 0.935547 17.7566 0.935547ZM17.7566 34.8418C8.88347 34.8418 1.66519 27.4984 1.66519 18.4727C1.66519 9.44711 8.88347 2.10367 17.7566 2.10367C26.6297 2.10367 33.848 9.44711 33.848 18.4727C33.848 27.4984 26.6297 34.8418 17.7566 34.8418Z" fill="#D7D7D7"/>
<path d="M21.5195 8.62932H18.6507C14.9969 8.59213 14.5302 10.8923 14.5302 13.3817V15.1918H12.9173C12.8444 15.1819 12.7703 15.1892 12.7006 15.2132C12.6309 15.2372 12.5676 15.2772 12.5156 15.3301C12.4636 15.383 12.4243 15.4474 12.4007 15.5182C12.3772 15.5891 12.37 15.6645 12.3797 15.7387V19.0199C12.37 19.0941 12.3772 19.1695 12.4007 19.2404C12.4243 19.3113 12.4636 19.3756 12.5156 19.4285C12.5676 19.4814 12.6309 19.5214 12.7006 19.5454C12.7703 19.5694 12.8444 19.5767 12.9173 19.5668H14.5302V27.7699C14.5213 27.8442 14.5291 27.9196 14.5532 27.9903C14.5773 28.0611 14.6169 28.1253 14.6691 28.178C14.7213 28.2308 14.7846 28.2707 14.8543 28.2948C14.924 28.3188 14.9981 28.3264 15.0711 28.3168H18.356C18.6733 28.354 18.9302 28.0926 18.8292 27.7699L18.8313 19.5668H21.5195C21.5924 19.5767 21.6665 19.5694 21.7362 19.5454C21.8059 19.5214 21.8692 19.4814 21.9212 19.4285C21.9732 19.3756 22.0125 19.3113 22.0361 19.2404C22.0597 19.1695 22.0669 19.0941 22.0571 19.0199V15.7387C22.0669 15.6645 22.0597 15.5891 22.0361 15.5182C22.0125 15.4474 21.9732 15.383 21.9212 15.3301C21.8692 15.2772 21.8059 15.2372 21.7362 15.2132C21.6665 15.1892 21.5924 15.1819 21.5195 15.1918H18.8281L18.8313 13.5512C18.9356 12.8523 18.9356 12.966 19.5733 13.0043H21.4969C21.6464 12.9704 21.8055 12.989 21.9173 12.8785C22.0292 12.7681 22.0937 12.6171 22.056 12.4574V9.17619C22.066 9.1021 22.0589 9.02667 22.0355 8.9558C22.0121 8.88492 21.9729 8.82051 21.9209 8.76758C21.869 8.71465 21.8057 8.67464 21.7361 8.65065C21.6665 8.62667 21.5923 8.61937 21.5195 8.62932V8.62932ZM20.9442 11.8493L19.5958 11.7968C17.9259 11.7968 17.7862 12.7188 17.7862 13.6628L17.7819 15.7365C17.7817 15.8133 17.7965 15.8894 17.8253 15.9604C17.854 16.0313 17.8963 16.0959 17.9496 16.1502C18.003 16.2046 18.0663 16.2477 18.1361 16.2771C18.2058 16.3065 18.2806 16.3217 18.356 16.3217H20.9819V18.4348H18.3582C18.2058 18.4348 18.0597 18.4963 17.9518 18.6058C17.8439 18.7153 17.7832 18.8638 17.7829 19.0188L17.7819 27.2231H15.6055V19.0199C15.6055 18.6973 15.3894 18.4359 15.0711 18.4359H13.455V16.3228H15.0711C15.1465 16.3229 15.2213 16.3079 15.291 16.2786C15.3608 16.2493 15.4241 16.2063 15.4775 16.1521C15.5851 16.0417 15.6044 15.8929 15.6044 15.7376V13.3806C15.6044 10.9284 16.0915 9.76025 18.6496 9.76025H20.9431V11.8493H20.9442Z" fill="#D7D7D7"/>
</g>
<defs>
<clipPath id="clip0_3556_18996">
<rect width="34.4086" height="35" fill="white" transform="translate(0.553223 0.972656)"/>
</clipPath>
</defs>
</svg>
