<svg width="36" height="36" viewBox="0 0 36 36" fill="none" xmlns="http://www.w3.org/2000/svg">
<g clip-path="url(#clip0_3556_19006)">
<path d="M21.6789 14.0452C20.9499 14.0452 20.4101 14.2323 19.9876 14.4685C19.9198 14.2235 19.6972 14.0441 19.4349 14.0977H16.2263C15.9091 14.0441 15.6521 14.3055 15.7499 14.6446V26.6759C15.6521 26.9821 15.9091 27.2446 16.2263 27.2227H19.4349C19.7521 27.2446 20.0091 26.9821 20.0091 26.6595L20.008 19.3882C20.0069 19.3849 19.9951 19.0371 20.2112 18.7976C20.3843 18.6073 20.6822 18.5099 21.094 18.5099C21.78 18.5099 22.0854 18.7954 22.1994 19.4341V26.6595C22.0865 26.9821 22.3435 27.2446 22.6607 27.2227H26.0424C26.3596 27.2446 26.6166 26.9821 26.5026 26.6595V19.1913C26.6155 15.3938 23.9564 14.0452 21.6789 14.0452ZM25.4671 26.129H23.2349V19.4341C23.2349 18.1424 22.4144 17.3418 21.0951 17.3418C20.3488 17.3418 19.7682 17.5649 19.3682 18.0046C18.8123 18.6171 18.8553 19.3937 18.9746 19.5665V26.129H16.8005V15.2134H18.8607V15.5809C18.8598 15.6903 18.8894 15.7978 18.9459 15.891C19.0024 15.9842 19.0836 16.0592 19.1802 16.1075C19.2768 16.1559 19.3848 16.1755 19.4919 16.1642C19.5989 16.1528 19.7007 16.111 19.7854 16.0435L19.9359 15.9254C20.3714 15.5765 20.822 15.2145 21.68 15.2145C22.5682 15.2145 25.4682 15.5021 25.4682 19.1924V26.129H25.4671ZM12.523 8.5918C11.3166 8.5918 10.3359 9.5893 10.3359 10.8165C10.3359 12.0437 11.3166 13.0412 12.523 13.0412C13.7295 13.0412 14.7101 12.0437 14.7101 10.8165C14.7101 9.5893 13.7295 8.5918 12.523 8.5918ZM12.523 11.873C11.951 11.873 11.4843 11.3984 11.4843 10.8165C11.4843 10.2346 11.951 9.75992 12.523 9.75992C13.0951 9.75992 13.5617 10.2346 13.5617 10.8165C13.5617 11.3984 13.0951 11.873 12.523 11.873ZM14.0585 14.0441H10.8671C10.5499 14.0441 10.2929 14.3055 10.3725 14.6446V26.6759C10.2929 26.9821 10.5499 27.2446 10.8671 27.2227H14.0585C14.3757 27.2446 14.6327 26.9821 14.6327 26.6595V14.6282C14.6327 14.4733 14.5722 14.3247 14.4645 14.2152C14.3569 14.1057 14.2108 14.0441 14.0585 14.0441ZM13.5983 26.129H11.4413V15.2134H13.5983V26.129Z" fill="#D7D7D7"/>
<path d="M17.8993 0.935547C8.39178 0.935547 0.658447 8.8018 0.658447 18.4727C0.658447 28.1437 8.39178 36.0099 17.8993 36.0099C27.4068 36.0099 35.1402 28.1437 35.1402 18.4727C35.1402 8.8018 27.4068 0.935547 17.8993 0.935547ZM17.8993 34.8418C9.02619 34.8418 1.80683 27.4984 1.80683 18.4727C1.80683 9.44711 9.02619 2.10367 17.8993 2.10367C26.7724 2.10367 33.9918 9.44711 33.9918 18.4727C33.9918 27.4984 26.7724 34.8418 17.8993 34.8418Z" fill="#D7D7D7"/>
</g>
<defs>
<clipPath id="clip0_3556_19006">
<rect width="34.4086" height="35" fill="white" transform="translate(0.695312 0.972656)"/>
</clipPath>
</defs>
</svg>
