<svg width="36" height="36" viewBox="0 0 36 36" fill="none" xmlns="http://www.w3.org/2000/svg">
<g clip-path="url(#clip0_3556_19001)">
<path d="M17.8276 0.935547C8.32118 0.935547 0.585693 8.8018 0.585693 18.4727C0.585693 28.1437 8.32118 36.0099 17.8276 36.0099C27.3341 36.0099 35.0696 28.1437 35.0696 18.4727C35.0696 8.8018 27.3341 0.935547 17.8276 0.935547ZM17.8276 34.8418C8.95451 34.8418 1.73623 27.4984 1.73623 18.4727C1.73623 9.44711 8.95451 2.10367 17.8276 2.10367C26.7007 2.10367 33.919 9.44711 33.919 18.4727C33.919 27.4984 26.7007 34.8418 17.8276 34.8418Z" fill="#D7D7D7"/>
<path d="M27.2844 13.0543C27.4037 12.8297 27.5019 12.5943 27.5779 12.351C27.6131 12.2382 27.6138 12.1171 27.58 12.0039C27.5461 11.8906 27.4793 11.7905 27.3883 11.7167C27.2974 11.6429 27.1865 11.5988 27.0704 11.5904C26.9544 11.582 26.8385 11.6096 26.7382 11.6696C26.1872 12.0026 25.5907 12.2506 24.9683 12.4057C24.2126 11.712 23.2313 11.3275 22.2134 11.3262C21.6604 11.3266 21.1132 11.4406 20.6046 11.6614C20.096 11.8821 19.6364 12.2051 19.2534 12.6108C18.8705 13.0166 18.572 13.4969 18.3759 14.0228C18.1799 14.5488 18.0902 15.1096 18.1124 15.6716C15.6941 15.362 13.4858 14.1173 11.9457 12.1957C11.8867 12.1229 11.8113 12.0657 11.7259 12.0289C11.6404 11.9921 11.5476 11.9768 11.4551 11.9843C11.3626 11.9918 11.2733 12.0219 11.1947 12.072C11.1162 12.1222 11.0507 12.1909 11.0038 12.2723C10.6511 12.888 10.4594 13.5853 10.447 14.2978C10.4346 15.0103 10.6018 15.7141 10.9328 16.3421C10.8516 16.356 10.7736 16.385 10.7027 16.4274C10.6157 16.4838 10.5442 16.5616 10.4945 16.6535C10.4449 16.7455 10.4189 16.8486 10.4188 16.9535C10.4188 18.1949 10.9618 19.3346 11.8371 20.109L11.7995 20.1473C11.7334 20.2233 11.6879 20.3155 11.6675 20.4149C11.6472 20.5142 11.6526 20.6173 11.6833 20.7138C11.8658 21.293 12.1706 21.8246 12.5762 22.2714C12.9819 22.7182 13.4786 23.0695 14.0317 23.3005C12.8958 23.8642 11.6246 24.084 10.3693 23.9338C10.2403 23.9205 10.1106 23.951 10.0004 24.0207C9.89031 24.0903 9.806 24.1952 9.76074 24.3188C9.71728 24.4434 9.71646 24.5792 9.75843 24.7043C9.80039 24.8294 9.88268 24.9364 9.99193 25.0079C11.6984 26.1219 13.6836 26.7138 15.7113 26.713C22.3564 26.713 26.3285 21.2224 26.3285 15.9145L26.3274 15.7351C26.9714 15.2237 27.5308 14.6107 27.9844 13.9195C28.0531 13.815 28.0869 13.6907 28.0807 13.5652C28.0746 13.4396 28.0289 13.3194 27.9504 13.2224C27.8718 13.1253 27.7647 13.0566 27.6447 13.0263C27.5248 12.996 27.3984 13.0058 27.2844 13.0543ZM25.4081 14.9738C25.33 15.0309 25.2673 15.1069 25.2256 15.195C25.1839 15.2831 25.1646 15.3804 25.1693 15.478C25.1758 15.6224 25.179 15.769 25.179 15.9134C25.179 20.6471 21.6382 25.5438 15.7124 25.5438C14.6555 25.5443 13.6061 25.3639 12.6081 25.0101C13.8033 24.7771 14.9262 24.2557 15.8822 23.4898C15.9753 23.4151 16.0435 23.3131 16.0773 23.1975C16.1112 23.082 16.1092 22.9587 16.0715 22.8443C16.0339 22.73 15.9624 22.6303 15.867 22.5589C15.7715 22.4875 15.6567 22.4478 15.5382 22.4452C15.0745 22.4362 14.6195 22.3165 14.2097 22.0958C13.7999 21.875 13.4469 21.5593 13.179 21.1743C13.4511 21.1557 13.7177 21.1098 13.9769 21.0387C14.1023 21.0045 14.2126 20.9282 14.2899 20.822C14.3671 20.7159 14.4068 20.5862 14.4023 20.4543C14.3978 20.3223 14.3494 20.1957 14.2652 20.0953C14.1809 19.9948 14.0656 19.9264 13.9382 19.9012C13.4145 19.7928 12.9297 19.5417 12.5356 19.1747C12.1414 18.8077 11.8528 18.3386 11.7005 17.8176C11.9866 17.8909 12.2801 17.9335 12.5736 17.9434C12.8263 17.9423 13.0607 17.7848 13.1392 17.5376C13.2177 17.2904 13.1253 17.018 12.9113 16.8737C12.4053 16.5308 12.0158 16.0374 11.7958 15.4609C11.5758 14.8844 11.5362 14.2529 11.6822 13.6526C13.55 15.602 16.0721 16.7628 18.7446 16.9032C18.9339 16.9043 19.0995 16.8354 19.2145 16.6943C19.3296 16.5532 19.3736 16.3662 19.3328 16.1868C19.1857 15.5426 19.2515 14.867 19.5199 14.2647C19.7884 13.6623 20.2445 13.1667 20.8177 12.8546C21.391 12.5425 22.0494 12.4313 22.691 12.5382C23.3326 12.6451 23.9218 12.9641 24.3672 13.4459C24.434 13.5183 24.5177 13.5723 24.6107 13.6027C24.7036 13.6331 24.8026 13.639 24.8984 13.6198C25.0758 13.5837 25.2511 13.5421 25.4242 13.494C25.3461 13.5534 25.265 13.6085 25.1812 13.6591C25.0697 13.7286 24.9848 13.8347 24.9404 13.9598C24.8961 14.0849 24.895 14.2217 24.9374 14.3475C24.9797 14.4734 25.0629 14.5808 25.1733 14.6521C25.2837 14.7234 25.4146 14.7543 25.5446 14.7398L25.7403 14.7146C25.6325 14.8049 25.5217 14.8914 25.4081 14.9738Z" fill="#D7D7D7"/>
</g>
<defs>
<clipPath id="clip0_3556_19001">
<rect width="34.4086" height="35" fill="white" transform="translate(0.624268 0.972656)"/>
</clipPath>
</defs>
</svg>
