<svg width="36" height="36" viewBox="0 0 36 36" fill="none" xmlns="http://www.w3.org/2000/svg">
<path d="M33.0226 18.3765C33.0226 18.3013 33.0226 18.2158 33.0192 18.1167C33.0158 17.8398 33.0091 17.5288 33.0024 17.1973C32.9755 16.2437 32.9285 15.2935 32.8546 14.3979C32.7538 13.1641 32.6059 12.1353 32.4043 11.3628C32.1915 10.5567 31.7745 9.82146 31.1948 9.23065C30.6152 8.63985 29.8933 8.21415 29.1012 7.99609C28.1503 7.73633 26.2887 7.57568 23.6677 7.47656C22.4211 7.42871 21.0871 7.39795 19.7531 7.38086C19.286 7.37402 18.8525 7.37061 18.4628 7.36719H17.4749C17.0851 7.37061 16.6516 7.37402 16.1845 7.38086C14.8505 7.39795 13.5165 7.42871 12.2699 7.47656C9.64891 7.5791 7.78399 7.73975 6.83641 7.99609C6.04408 8.21361 5.32186 8.63913 4.74214 9.23002C4.16241 9.82091 3.74555 10.5564 3.53332 11.3628C3.32835 12.1353 3.18386 13.1641 3.08305 14.3979C3.00913 15.2935 2.96208 16.2437 2.9352 17.1973C2.92512 17.5288 2.92176 17.8398 2.9184 18.1167C2.9184 18.2158 2.91504 18.3013 2.91504 18.3765V18.5679C2.91504 18.6431 2.91504 18.7285 2.9184 18.8276C2.92176 19.1045 2.92848 19.4155 2.9352 19.7471C2.96208 20.7007 3.00913 21.6509 3.08305 22.5464C3.18386 23.7803 3.33171 24.8091 3.53332 25.5815C3.96343 27.2188 5.22687 28.5107 6.83641 28.9482C7.78399 29.208 9.64891 29.3687 12.2699 29.4678C13.5165 29.5156 14.8505 29.5464 16.1845 29.5635C16.6516 29.5703 17.0851 29.5737 17.4749 29.5772H18.4628C18.8525 29.5737 19.286 29.5703 19.7531 29.5635C21.0871 29.5464 22.4211 29.5156 23.6677 29.4678C26.2887 29.3652 28.1536 29.2046 29.1012 28.9482C30.7107 28.5107 31.9742 27.2222 32.4043 25.5815C32.6093 24.8091 32.7538 23.7803 32.8546 22.5464C32.9285 21.6509 32.9755 20.7007 33.0024 19.7471C33.0125 19.4155 33.0158 19.1045 33.0192 18.8276C33.0192 18.7285 33.0226 18.6431 33.0226 18.5679V18.3765ZM30.6032 18.5542C30.6032 18.626 30.6032 18.7046 30.5999 18.7969C30.5965 19.0635 30.5898 19.3574 30.5831 19.6753C30.5595 20.5845 30.5125 21.4937 30.4419 22.3379C30.3512 23.4385 30.2235 24.3408 30.0656 24.9458C29.8572 25.7354 29.2457 26.3608 28.4728 26.5693C27.7672 26.7607 25.9896 26.9146 23.5736 27.0068C22.3505 27.0547 21.0333 27.0854 19.7195 27.1025C19.2591 27.1094 18.8324 27.1128 18.4493 27.1128H17.4883L16.2181 27.1025C14.9043 27.0854 13.5904 27.0547 12.364 27.0068C9.94797 26.9111 8.16706 26.7607 7.46477 26.5693C6.69192 26.3574 6.08036 25.7354 5.87203 24.9458C5.7141 24.3408 5.58641 23.4385 5.49568 22.3379C5.42512 21.4937 5.38144 20.5845 5.35456 19.6753C5.34448 19.3574 5.34111 19.0601 5.33775 18.7969C5.33775 18.7046 5.33439 18.6226 5.33439 18.5542V18.3901C5.33439 18.3184 5.33439 18.2397 5.33775 18.1475C5.34111 17.8809 5.34784 17.5869 5.35456 17.269C5.37808 16.3599 5.42512 15.4507 5.49568 14.6064C5.58641 13.5059 5.7141 12.6035 5.87203 11.9985C6.08036 11.209 6.69192 10.5835 7.46477 10.375C8.17042 10.1836 9.94797 10.0298 12.364 9.9375C13.5871 9.88965 14.9043 9.85889 16.2181 9.8418C16.6785 9.83496 17.1052 9.83154 17.4883 9.83154H18.4493L19.7195 9.8418C21.0333 9.85889 22.3472 9.88965 23.5736 9.9375C25.9896 10.0332 27.7706 10.1836 28.4728 10.375C29.2457 10.5869 29.8572 11.209 30.0656 11.9985C30.2235 12.6035 30.3512 13.5059 30.4419 14.6064C30.5125 15.4507 30.5562 16.3599 30.5831 17.269C30.5931 17.5869 30.5965 17.8843 30.5999 18.1475C30.5999 18.2397 30.6032 18.3218 30.6032 18.3901V18.5542ZM14.9782 23.0522L22.7739 18.438L14.9782 13.8921V23.0522Z" fill="#D7D7D7"/>
</svg>
