<svg width="72" height="23" viewBox="0 0 72 23" fill="none" xmlns="http://www.w3.org/2000/svg">
<path d="M60.3555 16.5445L65.9058 20.0172L64.4329 13.472L69.3365 9.06826L62.8792 8.50033L60.3555 2.32758L57.8319 8.50033L51.3745 9.06826L56.2781 13.472L54.8053 20.0172L60.3555 16.5445Z" fill="#F1592A"/>
<path d="M35.5665 16.5445L41.1167 20.0172L39.6438 13.472L44.5475 9.06826L38.0901 8.50033L35.5665 2.32758L33.0428 8.50033L26.5854 9.06826L31.4891 13.472L30.0162 20.0172L35.5665 16.5445Z" fill="#F1592A"/>
<path d="M10.7774 16.5445L16.3276 20.0172L14.8548 13.472L19.7584 9.06826L13.3011 8.50033L10.7774 2.32758L8.25373 8.50033L1.79639 9.06826L6.70001 13.472L5.22713 20.0172L10.7774 16.5445Z" fill="#F1592A"/>
</svg>
