<svg width="122" height="23" viewBox="0 0 122 23" fill="none" xmlns="http://www.w3.org/2000/svg">
<path d="M85.7774 16.5445L91.3276 20.0172L89.8548 13.472L94.7584 9.06826L88.3011 8.50033L85.7774 2.32758L83.2537 8.50033L76.7964 9.06826L81.7 13.472L80.2271 20.0172L85.7774 16.5445Z" fill="#F1592A"/>
<path d="M110.777 16.5445L116.328 20.0172L114.855 13.472L119.758 9.06826L113.301 8.50033L110.777 2.32758L108.254 8.50033L101.796 9.06826L106.7 13.472L105.227 20.0172L110.777 16.5445Z" fill="#F1592A"/>
<path d="M60.7774 16.5445L66.3276 20.0172L64.8548 13.472L69.7584 9.06826L63.3011 8.50033L60.7774 2.32758L58.2537 8.50033L51.7964 9.06826L56.7 13.472L55.2271 20.0172L60.7774 16.5445Z" fill="#F1592A"/>
<path d="M35.7774 16.5445L41.3276 20.0172L39.8548 13.472L44.7584 9.06826L38.3011 8.50033L35.7774 2.32758L33.2537 8.50033L26.7964 9.06826L31.7 13.472L30.2271 20.0172L35.7774 16.5445Z" fill="#F1592A"/>
<path d="M10.7774 16.5445L16.3276 20.0172L14.8548 13.472L19.7584 9.06826L13.3011 8.50033L10.7774 2.32758L8.25373 8.50033L1.79639 9.06826L6.70001 13.472L5.22713 20.0172L10.7774 16.5445Z" fill="#F1592A"/>
</svg>
