<svg width="26" height="26" viewBox="0 0 26 26" fill="none" xmlns="http://www.w3.org/2000/svg">
<path d="M13.6268 6.24675C13.6268 6.00985 13.5326 5.78265 13.3648 5.61514C13.197 5.44762 12.9694 5.35352 12.7321 5.35352C12.4948 5.35352 12.2672 5.44762 12.0995 5.61514C11.9317 5.78265 11.8374 6.00985 11.8374 6.24675V11.8536C11.499 12.0498 11.2349 12.352 11.086 12.7133C10.9371 13.0745 10.9116 13.4748 11.0137 13.8519C11.1157 14.2291 11.3394 14.5622 11.6503 14.7995C11.9611 15.0369 12.3417 15.1652 12.733 15.1648C13.3942 15.1648 13.9704 14.8057 14.2773 14.2715H18.0745C18.3118 14.2715 18.5394 14.1774 18.7072 14.0099C18.875 13.8424 18.9692 13.6152 18.9692 13.3783C18.9692 13.1414 18.875 12.9142 18.7072 12.7467C18.5394 12.5792 18.3118 12.4851 18.0745 12.4851H14.2666C14.1111 12.2226 13.8909 12.0042 13.6268 11.8509V6.24675Z" fill="#474747"/>
<path d="M25.2319 13.3783C25.2319 6.47182 19.6238 0.873047 12.7058 0.873047C5.7878 0.873047 0.179688 6.47182 0.179688 13.3783C0.179688 20.2847 5.7878 25.8835 12.7058 25.8835C19.6238 25.8835 25.2319 20.2847 25.2319 13.3783ZM22.5477 13.3783C22.5477 18.8046 18.1412 23.2038 12.7058 23.2038C7.27035 23.2038 2.86385 18.8046 2.86385 13.3783C2.86385 7.9519 7.27035 3.55274 12.7058 3.55274C18.1412 3.55274 22.5477 7.9519 22.5477 13.3783Z" fill="#474747"/>
</svg>
