<svg width="40" height="40" viewBox="0 0 40 40" fill="none" xmlns="http://www.w3.org/2000/svg">
<circle cx="20" cy="20" r="20" fill="white"/>
<path d="M33.5876 20.9636L31.0531 15.0498C30.9884 14.8971 30.8802 14.7668 30.742 14.6752C30.6038 14.5836 30.4417 14.5346 30.2759 14.5345H27.7414V12.8448C27.7414 12.6208 27.6524 12.4059 27.4939 12.2474C27.3355 12.089 27.1206 12 26.8966 12H10.8448C10.6208 12 10.4059 12.089 10.2474 12.2474C10.089 12.4059 10 12.6208 10 12.8448V27.2069C10 27.431 10.089 27.6458 10.2474 27.8043C10.4059 27.9627 10.6208 28.0517 10.8448 28.0517H12.6528C12.8473 28.7676 13.272 29.3996 13.8614 29.8501C14.4507 30.3007 15.1719 30.5448 15.9138 30.5448C16.6556 30.5448 17.3769 30.3007 17.9662 29.8501C18.5556 29.3996 18.9803 28.7676 19.1748 28.0517H24.4803C24.6749 28.7676 25.0996 29.3996 25.689 29.8501C26.2783 30.3007 26.9995 30.5448 27.7414 30.5448C28.4832 30.5448 29.2045 30.3007 29.7938 29.8501C30.3832 29.3996 30.8079 28.7676 31.0024 28.0517H32.8103C33.0344 28.0517 33.2493 27.9627 33.4077 27.8043C33.5662 27.6458 33.6552 27.431 33.6552 27.2069V21.2931C33.655 21.1799 33.632 21.0678 33.5876 20.9636ZM27.7414 16.2241H29.7183L31.5262 20.4483H27.7414V16.2241ZM15.9138 28.8966C15.5796 28.8966 15.2529 28.7975 14.9751 28.6118C14.6972 28.4261 14.4806 28.1622 14.3528 27.8535C14.2249 27.5448 14.1914 27.205 14.2566 26.8773C14.3218 26.5495 14.4827 26.2484 14.719 26.0121C14.9553 25.7758 15.2564 25.6149 15.5842 25.5497C15.9119 25.4845 16.2517 25.518 16.5604 25.6459C16.8691 25.7737 17.133 25.9903 17.3187 26.2682C17.5044 26.546 17.6034 26.8727 17.6034 27.2069C17.6034 27.655 17.4254 28.0848 17.1086 28.4017C16.7917 28.7185 16.3619 28.8966 15.9138 28.8966ZM24.4803 26.3621H19.1748C18.9803 25.6462 18.5556 25.0142 17.9662 24.5637C17.3769 24.1131 16.6556 23.869 15.9138 23.869C15.1719 23.869 14.4507 24.1131 13.8614 24.5637C13.272 25.0142 12.8473 25.6462 12.6528 26.3621H11.6897V13.6897H26.0517V24.3007C25.667 24.524 25.3302 24.821 25.0605 25.1747C24.7909 25.5285 24.5937 25.932 24.4803 26.3621ZM27.7414 28.8966C27.4072 28.8966 27.0805 28.7975 26.8027 28.6118C26.5248 28.4261 26.3082 28.1622 26.1803 27.8535C26.0525 27.5448 26.019 27.205 26.0842 26.8773C26.1494 26.5495 26.3103 26.2484 26.5466 26.0121C26.7829 25.7758 27.084 25.6149 27.4117 25.5497C27.7395 25.4845 28.0792 25.518 28.388 25.6459C28.6967 25.7737 28.9606 25.9903 29.1463 26.2682C29.3319 26.546 29.431 26.8727 29.431 27.2069C29.431 27.655 29.253 28.0848 28.9361 28.4017C28.6193 28.7185 28.1895 28.8966 27.7414 28.8966ZM31.9655 26.3621H31.0024C30.8156 25.6385 30.3942 24.9973 29.8041 24.5387C29.2141 24.0801 28.4887 23.83 27.7414 23.8276V22.1379H31.9655V26.3621Z" fill="#EF7204"/>
</svg>
