<svg width="40" height="40" viewBox="0 0 40 40" fill="none" xmlns="http://www.w3.org/2000/svg">
<circle cx="20" cy="20" r="20" fill="#D9D9D9"/>
<path d="M32.9142 19.981L30.3744 14.0648C30.3096 13.912 30.2012 13.7817 30.0627 13.69C29.9242 13.5983 29.7617 13.5493 29.5955 13.5492H27.0558V11.8589C27.0558 11.6347 26.9666 11.4197 26.8078 11.2612C26.649 11.1027 26.4337 11.0137 26.2092 11.0137H10.1239C9.89941 11.0137 9.68407 11.1027 9.5253 11.2612C9.36654 11.4197 9.27734 11.6347 9.27734 11.8589V26.2269C9.27734 26.4511 9.36654 26.6661 9.5253 26.8246C9.68407 26.9831 9.89941 27.0721 10.1239 27.0721H11.9356C12.1306 27.7883 12.5562 28.4205 13.1468 28.8713C13.7373 29.322 14.4601 29.5662 15.2035 29.5662C15.9469 29.5662 16.6696 29.322 17.2602 28.8713C17.8508 28.4205 18.2764 27.7883 18.4713 27.0721H23.7879C23.9829 27.7883 24.4085 28.4205 24.9991 28.8713C25.5896 29.322 26.3124 29.5662 27.0558 29.5662C27.7992 29.5662 28.5219 29.322 29.1125 28.8713C29.7031 28.4205 30.1287 27.7883 30.3236 27.0721H32.1353C32.3598 27.0721 32.5752 26.9831 32.7339 26.8246C32.8927 26.6661 32.9819 26.4511 32.9819 26.2269V20.3107C32.9817 20.1974 32.9587 20.0853 32.9142 19.981ZM27.0558 15.2396H29.0368L30.8485 19.4655H27.0558V15.2396ZM15.2035 27.9173C14.8686 27.9173 14.5412 27.8182 14.2628 27.6324C13.9844 27.4467 13.7673 27.1827 13.6392 26.8738C13.511 26.5649 13.4775 26.2251 13.5428 25.8972C13.6082 25.5693 13.7694 25.2681 14.0062 25.0317C14.243 24.7953 14.5447 24.6343 14.8732 24.569C15.2016 24.5038 15.542 24.5373 15.8514 24.6652C16.1608 24.7932 16.4253 25.0098 16.6113 25.2878C16.7974 25.5658 16.8967 25.8926 16.8967 26.2269C16.8967 26.6752 16.7183 27.1052 16.4007 27.4222C16.0832 27.7392 15.6525 27.9173 15.2035 27.9173ZM23.7879 25.3817H18.4713C18.2764 24.6656 17.8508 24.0333 17.2602 23.5826C16.6696 23.1318 15.9469 22.8876 15.2035 22.8876C14.4601 22.8876 13.7373 23.1318 13.1468 23.5826C12.5562 24.0333 12.1306 24.6656 11.9356 25.3817H10.9705V12.704H25.3626V23.3195C24.9771 23.5429 24.6395 23.84 24.3693 24.1939C24.0991 24.5478 23.9015 24.9515 23.7879 25.3817ZM27.0558 27.9173C26.7209 27.9173 26.3935 27.8182 26.1151 27.6324C25.8366 27.4467 25.6196 27.1827 25.4915 26.8738C25.3633 26.5649 25.3298 26.2251 25.3951 25.8972C25.4604 25.5693 25.6217 25.2681 25.8585 25.0317C26.0953 24.7953 26.397 24.6343 26.7254 24.569C27.0539 24.5038 27.3943 24.5373 27.7037 24.6652C28.0131 24.7932 28.2775 25.0098 28.4636 25.2878C28.6496 25.5658 28.7489 25.8926 28.7489 26.2269C28.7489 26.6752 28.5706 27.1052 28.253 27.4222C27.9355 27.7392 27.5048 27.9173 27.0558 27.9173ZM31.2887 25.3817H30.3236C30.1364 24.6579 29.7141 24.0164 29.1228 23.5576C28.5316 23.0988 27.8046 22.8486 27.0558 22.8462V21.1558H31.2887V25.3817Z" fill="#EF7204"/>
</svg>
