<svg width="58" height="56" viewBox="0 0 58 56" fill="none" xmlns="http://www.w3.org/2000/svg">
<path d="M54.2375 19.8964L54.2375 19.8964L54.2398 19.9058C54.2701 20.0265 54.2812 20.1568 54.2812 20.3625C54.2812 21.8685 53.1354 23 51.8143 23H5.37324C4.05206 23 2.90625 21.8685 2.90625 20.3625C2.90625 20.2014 2.92148 20.0475 2.95469 19.877C3.26155 18.6094 4.59377 13.8929 8.36457 9.49804C12.1244 5.11598 18.3501 1 28.5938 1C38.8374 1 45.0631 5.11598 48.8229 9.49804C52.6133 13.9157 53.9397 18.6583 54.2375 19.8964ZM16.25 12C16.25 10.3935 14.9892 9 13.3438 9C11.6983 9 10.4375 10.3935 10.4375 12C10.4375 13.6065 11.6983 15 13.3438 15C14.9892 15 16.25 13.6065 16.25 12ZM43.8438 15C45.4892 15 46.75 13.6065 46.75 12C46.75 10.3935 45.4892 9 43.8438 9C42.1983 9 40.9375 10.3935 40.9375 12C40.9375 13.6065 42.1983 15 43.8438 15ZM31.5 8C31.5 6.3935 30.2392 5 28.5938 5C26.9483 5 25.6875 6.3935 25.6875 8C25.6875 9.6065 26.9483 11 28.5938 11C30.2392 11 31.5 9.6065 31.5 8ZM1 34C1 31.194 3.15851 29 5.71875 29H51.4688C54.029 29 56.1875 31.194 56.1875 34C56.1875 36.806 54.029 39 51.4688 39H5.71875C3.15851 39 1 36.806 1 34ZM2.90625 46C2.90625 45.4065 3.36105 45 3.8125 45H53.375C53.8265 45 54.2812 45.4065 54.2812 46V48C54.2812 51.906 51.2649 55 47.6562 55H9.53125C5.92257 55 2.90625 51.906 2.90625 48V46Z" stroke="black" stroke-width="2"/>
</svg>
