<svg width="21" height="21" viewBox="0 0 21 21" fill="none" xmlns="http://www.w3.org/2000/svg">
<path d="M1.29206 13.4717C1.15917 13.4717 1.03173 13.5485 0.937768 13.6852C0.843804 13.8219 0.791016 14.0073 0.791016 14.2006C0.791016 14.3939 0.843804 14.5793 0.937768 14.716C1.03173 14.8527 1.15917 14.9294 1.29206 14.9294H2.79519C2.79519 16.4759 3.2175 17.9591 3.96921 19.0526C4.72092 20.1462 5.74046 20.7605 6.80354 20.7605H14.8202C15.8833 20.7605 16.9029 20.1462 17.6546 19.0526C18.4063 17.9591 18.8286 16.4759 18.8286 14.9294H20.3317C20.4646 14.9294 20.5921 14.8527 20.686 14.716C20.78 14.5793 20.8328 14.3939 20.8328 14.2006C20.8328 14.0073 20.78 13.8219 20.686 13.6852C20.5921 13.5485 20.4646 13.4717 20.3317 13.4717H1.29206Z" fill="#F24E1E"/>
<path fill-rule="evenodd" clip-rule="evenodd" d="M10.3636 0.390625L10.8121 0.716436L11.2605 1.04225L11.2595 1.04443L11.2535 1.06266L11.2284 1.14283C11.0946 1.5777 10.9938 2.03255 10.9278 2.49929C10.8096 3.35864 10.8532 4.11887 11.1663 4.57442C11.8553 5.57664 11.8117 7.00307 11.6794 7.96592C11.5931 8.57924 11.4576 9.17567 11.2755 9.74294L11.2655 9.77429L11.262 9.78376L11.261 9.78741L11.2605 9.78813L10.8121 9.46305L10.3636 9.13724L10.3646 9.13505L10.3707 9.11683L10.3957 9.03666C10.5296 8.60179 10.6304 8.14693 10.6963 7.6802C10.8146 6.82085 10.771 6.06062 10.4578 5.60507C9.76891 4.60285 9.8125 3.17642 9.94477 2.21357C10.0311 1.60025 10.1666 1.00382 10.3486 0.436545L10.3586 0.405202L10.3621 0.395727L10.3631 0.392811L10.3636 0.391353V0.390625ZM6.38786 2.1312L6.80373 2.53938C7.21909 2.94682 7.21959 2.94609 7.21959 2.94609V2.94537V2.94609L7.21308 2.96067C7.16911 3.06269 7.12799 3.16724 7.08982 3.27409C6.99509 3.53567 6.91952 3.81099 6.86435 4.09555C6.7441 4.74571 6.78719 5.25884 7.10185 5.59705C7.91454 6.47317 7.87145 7.78297 7.71012 8.65107C7.63637 9.03684 7.53476 9.41017 7.40698 9.76481C7.35111 9.92105 7.29042 10.0735 7.22511 10.2218L7.2211 10.2306L7.22009 10.2335L7.21959 10.2342C7.21959 10.2342 7.21909 10.2357 6.80373 9.82749C6.38836 9.41932 6.38786 9.42005 6.38786 9.42005L6.39437 9.4062L6.42143 9.34352C6.45515 9.2613 6.48723 9.17769 6.51763 9.09278C6.59529 8.87557 6.68448 8.58402 6.7431 8.2706C6.86335 7.62043 6.82026 7.10803 6.50561 6.7691C5.69291 5.89298 5.736 4.5839 5.89734 3.71507C5.98001 3.26899 6.10227 2.87685 6.20047 2.60133C6.2564 2.44538 6.31709 2.29313 6.38235 2.14505L6.38586 2.1363L6.38736 2.13266L6.38836 2.1312H6.38786ZM14.9056 2.1312L15.3215 2.53938C15.7368 2.94682 15.7373 2.94609 15.7373 2.94609V2.94537V2.94609L15.7308 2.96067C15.6869 3.06269 15.6457 3.16724 15.6076 3.27409C15.5128 3.53567 15.4373 3.81099 15.3821 4.09555C15.2618 4.74571 15.3049 5.25884 15.6196 5.59705C16.4323 6.47317 16.3892 7.78297 16.2279 8.65107C16.1541 9.03684 16.0525 9.41017 15.9247 9.76481C15.869 9.92103 15.8085 10.0735 15.7434 10.2218L15.7393 10.2306L15.7378 10.2335L15.7373 10.2342C15.7373 10.2342 15.7368 10.2357 15.3215 9.82749C14.9061 9.41932 14.9056 9.42005 14.9056 9.42005L14.9121 9.4062L14.9392 9.34352C14.9729 9.2613 15.005 9.17769 15.0354 9.09278C15.113 8.87557 15.2022 8.58402 15.2608 8.2706C15.3811 7.62043 15.338 7.10803 15.0234 6.7691C14.2107 5.89298 14.2537 4.5839 14.4151 3.71507C14.4978 3.26899 14.62 2.87685 14.7182 2.60133C14.774 2.44539 14.8345 2.29314 14.8996 2.14505L14.9036 2.1363L14.9051 2.13266L14.9061 2.1312H14.9056Z" fill="#F24E1E"/>
</svg>
