<svg width="28" height="29" viewBox="0 0 28 29" fill="none" xmlns="http://www.w3.org/2000/svg">
<path d="M12.8796 20.6518C8.84761 20.6518 5.59961 17.3246 5.59961 13.1942C5.59961 9.0639 8.84761 5.73668 12.8796 5.73668C16.9116 5.73668 20.1596 9.0639 20.1596 13.1942C20.1596 17.3246 16.9116 20.6518 12.8796 20.6518ZM12.8796 6.884C9.46361 6.884 6.71961 9.69492 6.71961 13.1942C6.71961 16.6936 9.46361 19.5045 12.8796 19.5045C16.2956 19.5045 19.0396 16.6936 19.0396 13.1942C19.0396 9.69492 16.2956 6.884 12.8796 6.884Z" fill="#807C7C"/>
<path d="M18.3016 17.9368L23.3304 23.0883L22.5386 23.8994L17.5098 18.748L18.3016 17.9368Z" fill="#807C7C"/>
</svg>
