<svg width="112" height="20" viewBox="0 0 112 20" fill="none" xmlns="http://www.w3.org/2000/svg">
<path d="M78.9998 14.8084L84.1498 17.9167L82.7832 12.0584L87.3332 8.11671L81.3415 7.60837L78.9998 2.08337L76.6582 7.60837L70.6665 8.11671L75.2165 12.0584L73.8498 17.9167L78.9998 14.8084Z" fill="#F1592A"/>
<path d="M55.9998 14.8084L61.1498 17.9167L59.7832 12.0584L64.3332 8.11671L58.3415 7.60837L55.9998 2.08337L53.6582 7.60837L47.6665 8.11671L52.2165 12.0584L50.8498 17.9167L55.9998 14.8084Z" fill="#F1592A"/>
<path d="M32.9998 14.8084L38.1498 17.9167L36.7832 12.0584L41.3332 8.11671L35.3415 7.60837L32.9998 2.08337L30.6582 7.60837L24.6665 8.11671L29.2165 12.0584L27.8498 17.9167L32.9998 14.8084Z" fill="#F1592A"/>
<path d="M9.99984 14.8084L15.1498 17.9167L13.7832 12.0584L18.3332 8.11671L12.3415 7.60837L9.99984 2.08337L7.65817 7.60837L1.6665 8.11671L6.2165 12.0584L4.84984 17.9167L9.99984 14.8084Z" fill="#F1592A"/>
<path d="M110.333 8.11671L104.342 7.60004L102 2.08337L99.6582 7.60837L93.6665 8.11671L98.2165 12.0584L96.8498 17.9167L102 14.8084L107.15 17.9167L105.792 12.0584L110.333 8.11671ZM102 13.25L98.8665 15.1417L99.6998 11.575L96.9332 9.17504L100.583 8.85837L102 5.50004L103.425 8.86671L107.075 9.18337L104.308 11.5834L105.142 15.15L102 13.25Z" fill="#F1592A"/>
</svg>
