<svg width="24" height="24" viewBox="0 0 24 24" fill="none" xmlns="http://www.w3.org/2000/svg">
<path d="M4.28571 23.1429H19.7143" stroke="black" stroke-width="1.71429" stroke-linecap="round" stroke-linejoin="round"/>
<path d="M23.0228 5.82857C22.8485 5.10964 22.4903 4.44835 21.9834 3.90956C21.4765 3.37077 20.8382 2.97297 20.1312 2.75517C19.4242 2.53737 18.6728 2.50705 17.9506 2.66718C17.2283 2.8273 16.5601 3.17238 16.0114 3.66857C15.7119 2.84522 15.1663 2.13396 14.4487 1.63136C13.731 1.12876 12.8761 0.859161 12 0.859161C11.1238 0.859161 10.2689 1.12876 9.55129 1.63136C8.83365 2.13396 8.28804 2.84522 7.98855 3.66857C7.43986 3.17238 6.77164 2.8273 6.0494 2.66718C5.32717 2.50705 4.57572 2.53737 3.86873 2.75517C3.16174 2.97297 2.5235 3.37077 2.01658 3.90956C1.50966 4.44835 1.15146 5.10964 0.97712 5.82857C0.840909 6.38962 0.818997 6.97233 0.912689 7.54202C1.00638 8.1117 1.21376 8.65671 1.52248 9.14458C1.83119 9.63245 2.23493 10.0532 2.70965 10.3818C3.18437 10.7104 3.72035 10.94 4.28569 11.0571V17.1429C4.28569 17.5975 4.4663 18.0336 4.78779 18.355C5.10928 18.6765 5.54532 18.8571 5.99998 18.8571H18C18.4546 18.8571 18.8907 18.6765 19.2122 18.355C19.5337 18.0336 19.7143 17.5975 19.7143 17.1429V11.0571C20.2796 10.94 20.8156 10.7104 21.2903 10.3818C21.765 10.0532 22.1688 9.63245 22.4775 9.14458C22.7862 8.65671 22.9936 8.1117 23.0873 7.54202C23.181 6.97233 23.159 6.38962 23.0228 5.82857Z" stroke="black" stroke-width="1.71429" stroke-linecap="round" stroke-linejoin="round"/>
<path d="M4.28571 14.5714H19.7143" stroke="black" stroke-width="1.71429" stroke-linecap="round" stroke-linejoin="round"/>
</svg>
