<svg width="40" height="40" viewBox="0 0 40 40" fill="none" xmlns="http://www.w3.org/2000/svg">
<circle cx="20" cy="20" r="20" fill="#D9D9D9"/>
<path d="M19.524 32.0084C19.2876 32.0084 19.0567 31.9335 18.8609 31.7933C18.595 31.6044 12.3508 27.1288 10.4147 25.0767C8.25057 22.787 8 20.3535 8 18.7216C8.00156 16.9394 8.6714 15.2307 9.86247 13.9705C11.0535 12.7103 12.6685 12.0017 14.353 12C16.4829 12 18.3692 13.1142 19.524 14.8212C20.1111 13.949 20.8867 13.238 21.7862 12.7472C22.6857 12.2565 23.683 12.0003 24.695 12C26.3795 12.0017 27.9945 12.7103 29.1855 13.9705C30.3766 15.2307 31.0465 16.9394 31.048 18.7216C31.048 20.3535 30.7974 22.787 28.6333 25.0767C26.6937 27.1288 20.4507 31.6044 20.1871 31.7933C19.9914 31.9335 19.7604 32.0084 19.524 32.0084ZM14.353 14.501C13.2954 14.5024 12.2815 14.9475 11.5337 15.7387C10.7858 16.5299 10.3652 17.6026 10.3639 18.7216C10.3639 20.0884 10.5684 21.7028 12.086 23.3085C13.5185 24.8241 17.8575 28.0292 19.524 29.2435C21.1906 28.0292 25.5295 24.8241 26.962 23.3085C28.4796 21.7028 28.6841 20.0884 28.6841 18.7216C28.6841 16.3943 26.8946 14.501 24.695 14.501C22.4954 14.501 20.706 16.3943 20.706 18.7216C20.706 19.0532 20.5814 19.3713 20.3598 19.6058C20.1381 19.8403 19.8375 19.9721 19.524 19.9721C19.2105 19.9721 18.9099 19.8403 18.6882 19.6058C18.4666 19.3713 18.3421 19.0532 18.3421 18.7216C18.3408 17.6026 17.9201 16.5299 17.1723 15.7387C16.4245 14.9475 15.4106 14.5024 14.353 14.501Z" fill="#F24E1E"/>
</svg>
