<svg width="24" height="31" viewBox="0 0 24 31" fill="none" xmlns="http://www.w3.org/2000/svg">
<path d="M12 1.51332e-08C8.83809 -0.000159255 5.80388 1.25688 3.55686 3.4979C1.30985 5.73891 0.0316191 8.78279 0 11.968C0 20.2488 10.575 29.4666 11.025 29.8595C11.2967 30.0936 11.6425 30.2222 12 30.2222C12.3575 30.2222 12.7033 30.0936 12.975 29.8595C13.5 29.4666 24 20.2488 24 11.968C23.9684 8.78279 22.6902 5.73891 20.4431 3.4979C18.1961 1.25688 15.1619 -0.000159255 12 1.51332e-08ZM12 16.6222C10.9616 16.6222 9.94661 16.312 9.08326 15.7308C8.2199 15.1497 7.54699 14.3237 7.14963 13.3573C6.75227 12.3908 6.6483 11.3274 6.85088 10.3015C7.05345 9.27555 7.55346 8.33316 8.28769 7.5935C9.02192 6.85384 9.95737 6.35012 10.9758 6.14605C11.9942 5.94198 13.0498 6.04671 14.0091 6.44702C14.9684 6.84732 15.7883 7.52521 16.3652 8.39496C16.9421 9.26471 17.25 10.2873 17.25 11.3333C17.25 12.736 16.6969 14.0812 15.7123 15.0731C14.7277 16.0649 13.3924 16.6222 12 16.6222Z" fill="#F1592A"/>
</svg>
