<svg width="24" height="24" viewBox="0 0 24 24" fill="none" xmlns="http://www.w3.org/2000/svg">
<g clip-path="url(#clip0_3601_23739)">
<path d="M11.5943 12.1429C14.6713 12.1429 17.1657 9.64844 17.1657 6.57143C17.1657 3.49441 14.6713 1 11.5943 1C8.51724 1 6.02283 3.49441 6.02283 6.57143C6.02283 9.64844 8.51724 12.1429 11.5943 12.1429Z" stroke="black" stroke-width="1.71429" stroke-linecap="round" stroke-linejoin="round"/>
<path d="M22.1886 23.2857C21.4689 21.0415 20.0551 19.0838 18.1511 17.6948C16.247 16.3059 13.9511 15.5574 11.5943 15.5574C9.23748 15.5574 6.94155 16.3059 5.03751 17.6948C3.13347 19.0838 1.7197 21.0415 1 23.2857H22.1886Z" stroke="black" stroke-width="1.71429" stroke-linecap="round" stroke-linejoin="round"/>
<path d="M20.8093 3.20608C20.9069 2.96754 21.073 2.7633 21.2867 2.61918C21.5004 2.47506 21.752 2.39754 22.0097 2.39642C22.2674 2.3953 22.5197 2.47063 22.7346 2.61288C22.9495 2.75514 23.1175 2.95793 23.2171 3.19561C23.3168 3.4333 23.3437 3.69519 23.2945 3.94819C23.2454 4.20119 23.1223 4.43392 22.9408 4.61695C22.7594 4.79999 22.5277 4.92511 22.2752 4.97648C22.0226 5.02786 21.7605 5.0032 21.5219 4.9056L21.193 5.70966" stroke="black" stroke-linecap="round" stroke-linejoin="round"/>
<path d="M20.6996 6.91576C20.5803 6.86696 20.4493 6.85463 20.323 6.88032C20.1967 6.90601 20.0809 6.96857 19.9902 7.06008C19.8994 7.1516 19.8379 7.26797 19.8133 7.39446C19.7887 7.52096 19.8022 7.65191 19.852 7.77075C19.9018 7.88959 19.9858 7.99099 20.0932 8.06212C20.2007 8.13325 20.3268 8.17091 20.4557 8.17035C20.5846 8.16979 20.7104 8.13103 20.8172 8.05897C20.9241 7.98691 21.0071 7.88479 21.0559 7.76552C21.119 7.60538 21.1171 7.42693 21.0505 7.2682C20.9839 7.10947 20.858 6.98301 20.6996 6.91576Z" fill="black"/>
</g>
<defs>
<clipPath id="clip0_3601_23739">
<rect width="24" height="24" fill="white"/>
</clipPath>
</defs>
</svg>
