<svg width="50" height="50" viewBox="0 0 50 50" fill="none" xmlns="http://www.w3.org/2000/svg">
<path d="M14.0625 7.81631V10.9413H43.75V17.1273L40.2832 28.1288H13.0793L9.17305 0H0V3.125H6.45195L10.3582 31.2538H42.575L46.875 17.608V7.81631H14.0625ZM15.7211 34.4086C14.0641 34.4105 12.4755 35.0696 11.3038 36.2413C10.1321 37.413 9.47298 39.0016 9.47109 40.6586C9.47109 42.3162 10.1296 43.9059 11.3017 45.078C12.4738 46.2501 14.0635 46.9086 15.7211 46.9086C17.3787 46.9086 18.9684 46.2501 20.1405 45.078C21.3126 43.9059 21.9711 42.3162 21.9711 40.6586C21.9692 39.0016 21.3102 37.4129 20.1385 36.2412C18.9668 35.0695 17.3781 34.4105 15.7211 34.4086ZM15.7211 43.7836C15.103 43.7836 14.4988 43.6003 13.9849 43.2569C13.471 42.9136 13.0705 42.4255 12.834 41.8545C12.5974 41.2835 12.5356 40.6551 12.6561 40.0489C12.7767 39.4427 13.0743 38.8859 13.5114 38.4489C13.9484 38.0118 14.5052 37.7142 15.1114 37.5936C15.7176 37.4731 16.346 37.5349 16.917 37.7715C17.488 38.008 17.9761 38.4085 18.3194 38.9224C18.6628 39.4363 18.8461 40.0405 18.8461 40.6586C18.8451 41.4871 18.5156 42.2814 17.9297 42.8672C17.3439 43.4531 16.5496 43.7826 15.7211 43.7836ZM37.5961 34.4086C35.9391 34.4105 34.3505 35.0696 33.1788 36.2413C32.0071 37.413 31.348 39.0016 31.3461 40.6586C31.3461 42.3162 32.0046 43.9059 33.1767 45.078C34.3488 46.2501 35.9385 46.9086 37.5961 46.9086C39.2537 46.9086 40.8434 46.2501 42.0155 45.078C43.1876 43.9059 43.8461 42.3162 43.8461 40.6586C43.8442 39.0016 43.1852 37.4129 42.0135 36.2412C40.8418 35.0695 39.2531 34.4105 37.5961 34.4086ZM37.5961 43.7836C36.978 43.7836 36.3738 43.6003 35.8599 43.2569C35.346 42.9136 34.9455 42.4255 34.709 41.8545C34.4724 41.2835 34.4106 40.6551 34.5311 40.0489C34.6517 39.4427 34.9493 38.8859 35.3864 38.4489C35.8234 38.0118 36.3802 37.7142 36.9864 37.5936C37.5926 37.4731 38.221 37.5349 38.792 37.7715C39.363 38.008 39.8511 38.4085 40.1944 38.9224C40.5378 39.4363 40.7211 40.0405 40.7211 40.6586C40.7201 41.4871 40.3906 42.2814 39.8047 42.8672C39.2189 43.4531 38.4246 43.7826 37.5961 43.7836Z" fill="black"/>
</svg>
