<svg width="19" height="18" viewBox="0 0 19 18" fill="none" xmlns="http://www.w3.org/2000/svg">
<path d="M5.87656 2.99931V4.19845H17.2766V6.57219L15.9453 10.7937H5.49901L3.99901 0H0.476562V1.19914H2.95411L4.45411 11.9929H16.8254L18.4766 6.75663V2.99931H5.87656ZM6.51346 13.2034C5.87717 13.2042 5.26714 13.4571 4.81721 13.9067C4.36728 14.3563 4.11419 14.9659 4.11346 15.6017C4.11346 16.2378 4.36632 16.8478 4.81641 17.2976C5.26649 17.7473 5.87694 18 6.51346 18C7.14998 18 7.76043 17.7473 8.21052 17.2976C8.66061 16.8478 8.91346 16.2378 8.91346 15.6017C8.91275 14.9659 8.65966 14.3563 8.20973 13.9067C7.7598 13.4571 7.14976 13.2042 6.51346 13.2034ZM6.51346 16.8009C6.27612 16.8009 6.04412 16.7305 5.84678 16.5988C5.64944 16.467 5.49563 16.2797 5.40481 16.0606C5.31398 15.8415 5.29022 15.6004 5.33652 15.3678C5.38282 15.1352 5.49711 14.9215 5.66493 14.7538C5.83276 14.5861 6.04658 14.4719 6.27935 14.4256C6.51213 14.3793 6.75341 14.4031 6.97268 14.4939C7.19195 14.5846 7.37937 14.7383 7.51123 14.9355C7.64308 15.1327 7.71346 15.3646 7.71346 15.6017C7.71309 15.9196 7.58654 16.2244 7.36157 16.4492C7.13661 16.674 6.83161 16.8005 6.51346 16.8009ZM14.9135 13.2034C14.2772 13.2042 13.6671 13.4571 13.2172 13.9067C12.7673 14.3563 12.5142 14.9659 12.5135 15.6017C12.5135 16.2378 12.7663 16.8478 13.2164 17.2976C13.6665 17.7473 14.2769 18 14.9135 18C15.55 18 16.1604 17.7473 16.6105 17.2976C17.0606 16.8478 17.3135 16.2378 17.3135 15.6017C17.3127 14.9659 17.0597 14.3563 16.6097 13.9067C16.1598 13.4571 15.5498 13.2042 14.9135 13.2034ZM14.9135 16.8009C14.6761 16.8009 14.4441 16.7305 14.2468 16.5988C14.0494 16.467 13.8956 16.2797 13.8048 16.0606C13.714 15.8415 13.6902 15.6004 13.7365 15.3678C13.7828 15.1352 13.8971 14.9215 14.0649 14.7538C14.2328 14.5861 14.4466 14.4719 14.6794 14.4256C14.9121 14.3793 15.1534 14.4031 15.3727 14.4939C15.592 14.5846 15.7794 14.7383 15.9112 14.9355C16.0431 15.1327 16.1135 15.3646 16.1135 15.6017C16.1131 15.9196 15.9865 16.2244 15.7616 16.4492C15.5366 16.674 15.2316 16.8005 14.9135 16.8009Z" fill="white"/>
</svg>
