<svg width="29" height="31" viewBox="0 0 29 31" fill="none" xmlns="http://www.w3.org/2000/svg">
<path d="M14.7669 0.542821C14.6668 0.442669 14.5479 0.363208 14.417 0.308992C14.2862 0.254775 14.1459 0.226868 14.0042 0.226868C13.8625 0.226868 13.7222 0.254775 13.5913 0.308992C13.4604 0.363208 13.3416 0.442669 13.2415 0.542821L0.314557 13.4482C0.214585 13.5483 0.135347 13.667 0.0813732 13.7977C0.0273996 13.9283 -0.000251105 14.0683 1.71819e-06 14.2096V29.2659C1.71819e-06 29.5512 0.113497 29.8247 0.315519 30.0264C0.517542 30.2281 0.791543 30.3414 1.07725 30.3414H10.7724C11.0581 30.3414 11.3321 30.2281 11.5342 30.0264C11.7362 29.8247 11.8497 29.5512 11.8497 29.2659V20.6623H16.1587V29.2659C16.1587 29.5512 16.2722 29.8247 16.4742 30.0264C16.6762 30.2281 16.9502 30.3414 17.2359 30.3414H26.9311C27.2168 30.3414 27.4908 30.2281 27.6928 30.0264C27.8949 29.8247 28.0084 29.5512 28.0084 29.2659V14.2096C28.0086 14.0683 27.981 13.9283 27.927 13.7977C27.873 13.667 27.7938 13.5483 27.6938 13.4482L24.7766 10.538V3.45514C24.7766 3.16991 24.6631 2.89637 24.4611 2.69468C24.2591 2.493 23.9851 2.37969 23.6994 2.37969H21.5449C21.2592 2.37969 20.9852 2.493 20.7832 2.69468C20.5811 2.89637 20.4676 3.16991 20.4676 3.45514V6.23625L14.7669 0.542821ZM2.15449 28.1905V14.6549L14.0042 2.82493L25.8539 14.6549V28.1905H18.3132V19.5869C18.3132 19.3017 18.1997 19.0281 17.9976 18.8264C17.7956 18.6247 17.5216 18.5114 17.2359 18.5114H10.7724C10.4867 18.5114 10.2127 18.6247 10.0107 18.8264C9.8087 19.0281 9.6952 19.3017 9.6952 19.5869V28.1905H2.15449Z" fill="black"/>
</svg>
