<svg width="48" height="48" viewBox="0 0 48 48"  xmlns="http://www.w3.org/2000/svg">
<g opacity="0.8">
<path d="M6.8 36.2V37.2H7.8H32.2H33.2V36.2V34C33.2 33.4591 32.8915 33.0363 32.6615 32.7817C32.4026 32.4951 32.0611 32.2236 31.6843 31.9721C30.9248 31.465 29.8852 30.949 28.6874 30.487C26.2912 29.5628 23.1183 28.8 20 28.8C16.8817 28.8 13.7088 29.5628 11.3126 30.487C10.1148 30.949 9.07518 31.465 8.31571 31.9721C7.9389 32.2236 7.59744 32.4951 7.3385 32.7817C7.10855 33.0363 6.8 33.4591 6.8 34V36.2ZM20 27C22.545 27 26.4186 27.6465 29.6306 28.9333C31.2358 29.5763 32.613 30.3547 33.5727 31.2405C34.5257 32.12 35 33.0373 35 34V39H5V34C5 33.0373 5.47432 32.12 6.42729 31.2405C7.38705 30.3547 8.76415 29.5763 10.3694 28.9333C13.5814 27.6465 17.455 27 20 27ZM20 9C21.8565 9 23.637 9.7375 24.9497 11.0503C26.2625 12.363 27 14.1435 27 16C27 17.8565 26.2625 19.637 24.9497 20.9497C23.637 22.2625 21.8565 23 20 23C18.1435 23 16.363 22.2625 15.0503 20.9497C13.7375 19.637 13 17.8565 13 16C13 14.1435 13.7375 12.363 15.0503 11.0503C16.363 9.7375 18.1435 9 20 9ZM20 10.8C18.6209 10.8 17.2982 11.3479 16.323 12.323C15.3479 13.2982 14.8 14.6209 14.8 16C14.8 17.3791 15.3479 18.7018 16.323 19.677C17.2982 20.6521 18.6209 21.2 20 21.2C21.3791 21.2 22.7018 20.6521 23.677 19.677C24.6521 18.7018 25.2 17.3791 25.2 16C25.2 14.6209 24.6521 13.2982 23.677 12.323C22.7018 11.3479 21.3791 10.8 20 10.8Z" stroke="black" stroke-width="2"/>
<path d="M37.4494 21.8876C37.2719 22.0715 37.0889 22.2611 36.9007 22.4569L36.5 22.8229L36.0993 22.4569C35.9111 22.2611 35.7281 22.0715 35.5505 21.8876C34.539 20.8399 33.703 19.9739 33.0865 19.1576C32.3672 18.205 32 17.386 32 16.5137C32 15.1019 33.0682 14 34.25 14C34.9812 14 35.6993 14.347 36.0962 14.8907L36.5 15.4439L36.9038 14.8907C37.3007 14.347 38.0188 14 38.75 14C39.9461 14 41 14.9804 41 16.5137C41 17.386 40.6328 18.205 39.9135 19.1576C39.297 19.9739 38.461 20.8399 37.4494 21.8876Z" stroke="black"/>
</g>
</svg>
