<svg width="57" height="56" viewBox="0 0 57 56" fill="none" xmlns="http://www.w3.org/2000/svg">
<path d="M43.8024 26.4901V26.49C43.8024 26.3819 43.7965 26.2803 43.7912 26.1967C43.7901 26.1796 43.789 26.1634 43.788 26.148C43.7843 26.0914 43.7813 26.0446 43.7794 25.9982C43.7812 25.9503 43.7844 25.901 43.7884 25.8393L43.7908 25.804C43.7961 25.7214 43.8024 25.6187 43.8024 25.51C43.8024 17.3143 36.9939 10.7045 28.6348 10.7045C20.2766 10.7045 13.4662 17.3142 13.4662 25.51C13.4662 25.6237 13.474 25.7305 13.4804 25.8132C13.4814 25.8258 13.4823 25.8378 13.4832 25.8492C13.4879 25.9094 13.4915 25.9556 13.4936 26C13.4916 26.0442 13.488 26.0901 13.4833 26.15C13.4824 26.1616 13.4814 26.1737 13.4804 26.1863C13.474 26.2692 13.4662 26.3759 13.4662 26.49C13.4662 34.6858 20.2757 41.2955 28.6348 41.2955C36.9939 41.2955 43.8014 34.6857 43.8024 26.4901ZM9.56055 26C9.56055 15.3625 18.1077 6.75 28.6357 6.75C39.1627 6.75 47.7099 15.3625 47.7099 26C47.7099 36.6366 39.1627 45.25 28.6357 45.25C18.1086 45.25 9.56055 36.6365 9.56055 26Z" stroke="black" stroke-width="1.5"/>
<mask id="path-2-inside-1_1506_20147" fill="white">
<path d="M1.40735 0.471623C1.63534 -0.582294 2.08659 0.459303 2.08659 0.459303C2.08659 0.459303 2.24429 11.3681 3.27028 11.4868C4.29627 11.6055 3.50588 0.262184 4.71997 0.0449043C5.84856 -0.166775 5.20447 11.6671 6.23236 11.5473C7.25645 11.4196 7.42935 0.515303 7.42935 0.515303C7.42935 0.515303 7.88535 -0.525174 8.1105 0.520903C10.8921 13.4121 8.64154 18.6817 8.64154 18.6817C8.64154 18.6817 8.26155 19.7893 7.35905 19.7949C7.2745 19.7893 7.33815 50.4112 7.33245 54.5283C7.33435 56.5297 2.10749 56.4681 2.11034 54.4757C2.11414 50.3585 2.21579 19.7401 2.13409 19.7423C1.22875 19.7423 0.8497 18.6357 0.8497 18.6357C0.8497 18.6357 -1.39228 13.3695 1.40735 0.471623ZM50.939 0.000104472C52.1151 -0.00325552 56.9943 4.14409 57 19.5575C57.0057 24.4866 54.7248 24.4855 54.7286 27.5688C54.7324 30.6466 54.7466 55.1275 54.7466 55.1275C54.7466 55.1275 52.2443 57.1513 50.3842 55.0334L50.35 0.438023C50.3519 0.439143 50.3453 -0.00101553 50.939 0.000104472Z"/>
</mask>
<path d="M2.08659 0.459303L3.58643 0.437621L3.5821 0.137987L3.46298 -0.136983L2.08659 0.459303ZM4.71997 0.0449043L4.98423 1.5215L4.99649 1.5192L4.71997 0.0449043ZM6.23236 11.5473L6.40607 13.0372L6.41794 13.0358L6.23236 11.5473ZM7.42935 0.515303L6.0555 -0.0867979L5.93433 0.189688L5.92954 0.491522L7.42935 0.515303ZM8.1105 0.520903L6.64408 0.836522L6.64424 0.837283L8.1105 0.520903ZM8.64154 18.6817L7.26208 18.0925L7.24052 18.143L7.22271 18.1949L8.64154 18.6817ZM7.35905 19.7949L7.25992 21.2917L7.31408 21.2952L7.36836 21.2949L7.35905 19.7949ZM7.33245 54.5283L5.83245 54.5262L5.83245 54.5297L7.33245 54.5283ZM2.11034 54.4757L3.61034 54.4778L3.61034 54.477L2.11034 54.4757ZM2.13409 19.7423V21.2423H2.15465L2.1752 21.2417L2.13409 19.7423ZM0.8497 18.6357L2.26875 18.1497L2.25113 18.0982L2.22983 18.0482L0.8497 18.6357ZM50.939 0.000104472L50.9362 1.50012L50.9433 1.5001L50.939 0.000104472ZM57 19.5575L55.5 19.5581L55.5 19.5592L57 19.5575ZM54.7286 27.5688L53.2286 27.5707V27.5707L54.7286 27.5688ZM54.7466 55.1275L55.6899 56.2938L56.247 55.8432L56.2466 55.1266L54.7466 55.1275ZM50.3842 55.0334L48.8842 55.0344L48.8846 55.599L49.2572 56.0233L50.3842 55.0334ZM50.35 0.438023L51.1118 -0.854177L48.8484 -2.18838L48.85 0.438963L50.35 0.438023ZM2.87343 0.788788C2.88803 0.721315 2.89006 0.741852 2.85852 0.808685C2.83371 0.861264 2.72455 1.08094 2.45299 1.26556C2.30687 1.3649 2.12471 1.44577 1.91396 1.48111C1.7046 1.51621 1.51207 1.49888 1.35221 1.45817C1.05695 1.38296 0.87967 1.23133 0.822622 1.17939C0.753404 1.11637 0.718043 1.06674 0.712374 1.05883C0.70317 1.04598 0.701826 1.04252 0.706548 1.05088C0.710436 1.05776 0.714207 1.06517 0.716495 1.0699C0.717424 1.07182 0.717518 1.07208 0.716615 1.0701C0.716149 1.06908 0.7154 1.06742 0.714347 1.06505C0.71382 1.06386 0.713213 1.06249 0.712524 1.06092C0.71218 1.06013 0.711814 1.05929 0.711428 1.05841C0.711234 1.05796 0.711036 1.05751 0.710832 1.05704C0.71073 1.0568 0.710572 1.05644 0.710522 1.05632C0.710364 1.05596 0.710204 1.05559 2.08659 0.459303C3.46298 -0.136983 3.46282 -0.13736 3.46265 -0.137741C3.46259 -0.137874 3.46242 -0.13826 3.46231 -0.138526C3.46208 -0.139059 3.46184 -0.13961 3.46159 -0.140179C3.46109 -0.141317 3.46056 -0.142528 3.46 -0.143811C3.45888 -0.146375 3.45762 -0.149227 3.45623 -0.152354C3.45346 -0.158603 3.45015 -0.16598 3.44632 -0.174372C3.4387 -0.191098 3.42887 -0.212188 3.41702 -0.23669C3.39374 -0.284806 3.36047 -0.350537 3.31849 -0.424836C3.25398 -0.539018 3.09563 -0.808267 2.84231 -1.03891C2.71461 -1.15518 2.46311 -1.35466 2.0927 -1.44901C1.65527 -1.56043 1.17271 -1.49167 0.766336 -1.21541C0.420411 -0.980232 0.238596 -0.669019 0.145464 -0.471676C0.0456062 -0.260079 -0.0163369 -0.0415477 -0.0587398 0.154459L2.87343 0.788788ZM2.08659 0.459303C0.586748 0.480985 0.586749 0.481096 0.586752 0.481248C0.586753 0.481354 0.586756 0.481547 0.586759 0.481759C0.586765 0.482183 0.586774 0.482773 0.586785 0.483527C0.586807 0.485034 0.58684 0.487199 0.586882 0.49001C0.586968 0.495632 0.587095 0.50384 0.587266 0.514553C0.587608 0.535977 0.588127 0.567419 0.588844 0.608216C0.590279 0.689804 0.592508 0.808836 0.595707 0.960001C0.602102 1.26227 0.612379 1.69336 0.627941 2.21075C0.65902 3.24407 0.711366 4.62808 0.796486 6.02008C0.881003 7.40222 1.00008 8.83189 1.16975 9.94058C1.25299 10.4845 1.35822 11.0194 1.50084 11.4503C1.56971 11.6583 1.67402 11.9263 1.83918 12.1745C1.97356 12.3764 2.36482 12.892 3.09786 12.9769L3.4427 9.99674C4.0475 10.0667 4.31729 10.4832 4.33664 10.5123C4.38677 10.5876 4.38249 10.6091 4.34885 10.5075C4.28647 10.319 4.21105 9.98224 4.13523 9.48676C3.98677 8.51666 3.87405 7.19687 3.79089 5.83698C3.70834 4.48695 3.65714 3.13635 3.62658 2.12056C3.61133 1.61339 3.60127 1.19131 3.59504 0.896542C3.59192 0.749188 3.58976 0.633736 3.58838 0.55547C3.58769 0.516339 3.5872 0.486512 3.58688 0.466648C3.58672 0.456716 3.58661 0.449277 3.58654 0.444411C3.5865 0.441978 3.58647 0.440189 3.58646 0.439054C3.58645 0.438487 3.58644 0.438083 3.58644 0.437843C3.58644 0.437724 3.58644 0.437668 3.58643 0.437608C3.58643 0.437594 3.58643 0.437621 2.08659 0.459303ZM3.09786 12.9769C3.98554 13.0796 4.50912 12.4853 4.69194 12.2099C4.87979 11.927 4.97472 11.6217 5.02772 11.4208C5.14173 10.9887 5.20776 10.4457 5.25353 9.90653C5.34715 8.80369 5.38342 7.33655 5.42396 5.93524C5.46556 4.49775 5.51173 3.12149 5.61762 2.09498C5.67157 1.57202 5.73361 1.22095 5.79104 1.02428C5.82141 0.920316 5.82699 0.94347 5.77611 1.0225C5.73733 1.08274 5.50165 1.42884 4.98422 1.52145L4.45572 -1.43164C3.78653 -1.31187 3.41475 -0.851687 3.25366 -0.601469C3.08048 -0.332469 2.97755 -0.0434467 2.91133 0.183317C2.77559 0.64811 2.69218 1.21796 2.63346 1.78714C2.51403 2.94491 2.46604 4.4378 2.42522 5.84847C2.38335 7.29531 2.34896 8.65532 2.26428 9.65276C2.2209 10.1638 2.17087 10.4892 2.12698 10.6555C2.10103 10.7538 2.10655 10.6803 2.19266 10.5506C2.27375 10.4284 2.68327 9.90887 3.4427 9.99674L3.09786 12.9769ZM4.99649 1.5192C4.29279 1.65118 3.84761 1.21795 3.72136 1.05332C3.61446 0.913924 3.60292 0.825252 3.63203 0.920725C3.68053 1.0798 3.74076 1.40525 3.79624 1.92801C3.90406 2.94397 3.96011 4.34317 4.01497 5.81742C4.06851 7.25635 4.12095 8.76892 4.22762 9.9104C4.27984 10.4691 4.35206 11.0252 4.46902 11.4646C4.52345 11.6691 4.61844 11.9726 4.80069 12.253C4.96681 12.5086 5.48943 13.1441 6.40607 13.0372L6.05866 10.0574C6.84681 9.96548 7.254 10.5226 7.31608 10.6181C7.39428 10.7384 7.39662 10.8001 7.36808 10.6929C7.31911 10.509 7.26419 10.1618 7.21461 9.63125C7.11769 8.59419 7.06789 7.18398 7.01289 5.70588C6.95921 4.2631 6.90043 2.75101 6.77948 1.61139C6.72058 1.05636 6.63794 0.492954 6.50163 0.0458495C6.43833 -0.161768 6.3239 -0.482862 6.10194 -0.772292C5.86063 -1.08696 5.28822 -1.58783 4.44345 -1.42939L4.99649 1.5192ZM6.41794 13.0358C7.14606 12.945 7.53285 12.4304 7.66528 12.2304C7.82903 11.9831 7.93294 11.7161 8.00184 11.5079C8.14443 11.0772 8.25011 10.5423 8.33395 9.99801C8.5048 8.88877 8.62566 7.45904 8.71197 6.0769C8.7989 4.68495 8.85311 3.30126 8.88559 2.26824C8.90186 1.75101 8.91273 1.32006 8.91954 1.01791C8.92295 0.866797 8.92534 0.747813 8.92689 0.666258C8.92766 0.625479 8.92823 0.59405 8.9286 0.572635C8.92878 0.561927 8.92892 0.553723 8.92902 0.548103C8.92906 0.545294 8.9291 0.54313 8.92912 0.541624C8.92913 0.540871 8.92914 0.540281 8.92915 0.539858C8.92915 0.539646 8.92916 0.539452 8.92916 0.539346C8.92916 0.539195 8.92916 0.539084 7.42935 0.515303C5.92954 0.491522 5.92954 0.491495 5.92954 0.491509C5.92954 0.49157 5.92954 0.491625 5.92954 0.491745C5.92953 0.491984 5.92953 0.492388 5.92952 0.492955C5.9295 0.49409 5.92947 0.495879 5.92943 0.498311C5.92935 0.503175 5.92922 0.510612 5.92905 0.520541C5.92871 0.540397 5.92817 0.570214 5.92743 0.609331C5.92594 0.68757 5.92362 0.802982 5.9203 0.950287C5.91366 1.24496 5.90302 1.66691 5.88708 2.17395C5.85514 3.18947 5.80212 4.53983 5.71781 5.88992C5.63288 7.24981 5.51851 8.5701 5.36891 9.54132C5.29253 10.0372 5.21669 10.3753 5.1538 10.5652C5.11997 10.6675 5.11515 10.6478 5.16386 10.5743C5.18124 10.548 5.44667 10.1336 6.04678 10.0588L6.41794 13.0358ZM7.42935 0.515303C8.80321 1.1174 8.80304 1.11777 8.80289 1.11813C8.80283 1.11825 8.80268 1.11861 8.80257 1.11884C8.80237 1.11931 8.80217 1.11976 8.80197 1.1202C8.80159 1.12109 8.80122 1.12191 8.80087 1.12269C8.80018 1.12425 8.79957 1.12562 8.79905 1.12679C8.79799 1.12914 8.79725 1.13077 8.79679 1.13176C8.7959 1.13369 8.79603 1.13337 8.797 1.13138C8.79938 1.12651 8.8033 1.11887 8.8074 1.11168C8.81232 1.10305 8.81128 1.10595 8.80253 1.1181C8.79724 1.12544 8.76275 1.17363 8.6951 1.23519C8.63953 1.28576 8.46593 1.43449 8.17645 1.51039C8.01967 1.55149 7.82925 1.57068 7.62065 1.53801C7.41022 1.50505 7.22647 1.42632 7.07759 1.32716C6.80022 1.14242 6.68791 0.919196 6.6615 0.863546C6.62849 0.794013 6.62993 0.770801 6.64408 0.836522L9.57692 0.205285C9.53477 0.0094865 9.47271 -0.21004 9.37168 -0.422898C9.27723 -0.621872 9.09236 -0.935433 8.74058 -1.16973C8.32842 -1.44424 7.84578 -1.50431 7.41562 -1.39153C7.05072 -1.29586 6.80252 -1.09879 6.67589 -0.983546C6.42436 -0.754639 6.26601 -0.487906 6.20084 -0.373534C6.15867 -0.299525 6.12521 -0.234052 6.10177 -0.186099C6.08984 -0.161685 6.07995 -0.140675 6.07227 -0.124015C6.06841 -0.115657 6.06508 -0.108311 6.06229 -0.102091C6.06089 -0.0989783 6.05962 -0.0961395 6.05849 -0.0935883C6.05793 -0.0923124 6.05739 -0.0911076 6.05689 -0.0899756C6.05664 -0.0894095 6.0564 -0.0888616 6.05617 -0.0883319C6.05605 -0.0880675 6.05589 -0.0876831 6.05583 -0.0875512C6.05566 -0.0871726 6.0555 -0.0867979 7.42935 0.515303ZM6.64424 0.837283C8.00849 7.15986 8.1264 11.5559 7.92313 14.3257C7.82148 15.7108 7.63936 16.6915 7.49144 17.3056C7.41745 17.6127 7.35189 17.8287 7.30899 17.9581C7.28753 18.0229 7.27172 18.066 7.26332 18.0882C7.25912 18.0993 7.25677 18.1052 7.25649 18.1059C7.25635 18.1062 7.25673 18.1053 7.25765 18.103C7.25811 18.1019 7.25871 18.1005 7.25945 18.0987C7.25981 18.0979 7.26022 18.0969 7.26066 18.0959C7.26088 18.0953 7.26123 18.0945 7.26134 18.0943C7.26171 18.0934 7.26208 18.0925 8.64154 18.6817C10.021 19.2708 10.0214 19.2699 10.0218 19.2689C10.0219 19.2686 10.0223 19.2677 10.0226 19.267C10.0232 19.2656 10.0238 19.2642 10.0245 19.2627C10.0257 19.2596 10.0271 19.2562 10.0287 19.2526C10.0317 19.2452 10.0353 19.2365 10.0393 19.2264C10.0474 19.2064 10.0574 19.1811 10.069 19.1505C10.0922 19.0892 10.122 19.0065 10.1566 18.902C10.2259 18.6929 10.3145 18.3964 10.408 18.0081C10.5951 17.2313 10.8018 16.0889 10.9151 14.5453C11.1417 11.4574 10.9941 6.77312 9.57675 0.204524L6.64424 0.837283ZM8.64154 18.6817C7.22271 18.1949 7.22288 18.1944 7.22305 18.1939C7.22311 18.1938 7.22328 18.1933 7.22339 18.1929C7.22361 18.1923 7.22383 18.1917 7.22404 18.1911C7.22446 18.1898 7.22487 18.1887 7.22526 18.1876C7.22604 18.1853 7.22674 18.1833 7.22738 18.1816C7.22864 18.178 7.22963 18.1753 7.23033 18.1734C7.23173 18.1696 7.23204 18.1689 7.23127 18.1709C7.22962 18.175 7.22415 18.1882 7.21496 18.2074C7.19472 18.2497 7.16737 18.2979 7.1379 18.3373C7.05666 18.4458 7.12281 18.2964 7.34975 18.295L7.36836 21.2949C8.49779 21.2879 9.20518 20.5818 9.53957 20.1351C9.71791 19.8968 9.84196 19.6678 9.92117 19.5022C9.96171 19.4175 9.99298 19.3442 10.0156 19.2877C10.027 19.2593 10.0364 19.2348 10.0438 19.2148C10.0475 19.2048 10.0507 19.1959 10.0535 19.1881C10.0549 19.1842 10.0561 19.1807 10.0573 19.1774C10.0578 19.1757 10.0584 19.1742 10.0589 19.1727C10.0592 19.1719 10.0594 19.1712 10.0597 19.1705C10.0598 19.1701 10.06 19.1696 10.06 19.1694C10.0602 19.1689 10.0604 19.1684 8.64154 18.6817ZM7.45819 18.2982C6.98369 18.3426 6.33245 18.7011 6.1515 18.9047C6.07384 19.0209 5.97477 19.2161 5.94594 19.2904C5.90135 19.4149 5.88372 19.518 5.8796 19.5415C5.86712 19.6128 5.8621 19.6721 5.86062 19.6894C5.85644 19.7384 5.85418 19.7875 5.8528 19.8213C5.84974 19.8964 5.84728 19.9961 5.84514 20.111C5.8408 20.3446 5.8371 20.682 5.83391 21.1056C5.82752 21.9547 5.82304 23.1699 5.82003 24.6376C5.81402 27.574 5.81387 31.5316 5.81618 35.6165C5.82082 43.7903 5.8353 52.4693 5.83245 54.5262L8.83245 54.5304C8.8353 52.4702 8.82081 43.7797 8.81618 35.6147C8.81387 31.5302 8.81402 27.576 8.82003 24.6438C8.82303 23.1772 8.8275 21.9688 8.83383 21.1282C8.837 20.707 8.8406 20.3831 8.84462 20.1667C8.84667 20.0567 8.84865 19.9841 8.85031 19.9435C8.85129 19.9194 8.85145 19.9246 8.84977 19.9444C8.84954 19.9471 8.84579 19.9953 8.8346 20.0592C8.83112 20.0791 8.81414 20.1795 8.7702 20.3021C8.7417 20.3755 8.64295 20.57 8.56562 20.6858C8.38499 20.889 7.73409 21.2472 7.25992 21.2917L7.45819 18.2982ZM5.83245 54.5297C5.83218 54.2428 6.05762 54.1973 5.84676 54.3026C5.63051 54.4106 5.23054 54.5052 4.73744 54.4998C4.24536 54.4944 3.841 54.3914 3.61762 54.2752C3.39332 54.1585 3.61074 54.1953 3.61034 54.4778L0.610342 54.4735C0.608513 55.7523 1.47823 56.5439 2.2331 56.9366C2.98889 57.3298 3.8906 57.4907 4.70464 57.4996C5.51766 57.5085 6.42388 57.3677 7.18704 56.9866C7.95559 56.6028 8.83367 55.8145 8.83245 54.5269L5.83245 54.5297ZM3.61034 54.477C3.61224 52.4187 3.63859 43.7404 3.65428 35.5671C3.66211 31.4824 3.66728 27.525 3.66538 24.5885C3.66443 23.1207 3.66171 21.9055 3.65666 21.0563C3.65413 20.6326 3.651 20.2953 3.64712 20.0618C3.64521 19.9469 3.64297 19.8477 3.64014 19.7731C3.63886 19.7393 3.63677 19.6913 3.63291 19.6436C3.63153 19.6265 3.62695 19.5695 3.61553 19.501C3.61172 19.4782 3.5957 19.38 3.55521 19.2609C3.52907 19.1898 3.43912 19.0022 3.36846 18.8897C3.20091 18.6876 2.56926 18.3068 2.09298 18.2429L2.1752 21.2417C1.69924 21.1778 1.06791 20.7972 0.900675 20.5956C0.83033 20.4835 0.740692 20.2966 0.714867 20.2265C0.675001 20.1092 0.659606 20.0138 0.656414 19.9946C0.646227 19.9336 0.642856 19.8876 0.642663 19.8853C0.641178 19.8669 0.641382 19.8628 0.642303 19.887C0.643876 19.9284 0.645704 20.0015 0.647536 20.1117C0.651141 20.3285 0.6542 20.6528 0.656709 21.0742C0.661716 21.9151 0.664432 23.1238 0.665381 24.5904C0.66728 27.5229 0.662118 31.4771 0.654281 35.5613C0.638614 43.726 0.612242 52.4155 0.610342 54.4743L3.61034 54.477ZM2.13409 18.2423C2.36102 18.2423 2.43013 18.3924 2.35145 18.2878C2.32275 18.2496 2.29589 18.2024 2.27593 18.1607C2.2669 18.1419 2.26155 18.1289 2.26 18.125C2.25927 18.1232 2.25962 18.124 2.26105 18.1279C2.26177 18.1298 2.26277 18.1326 2.26405 18.1362C2.26469 18.138 2.26541 18.14 2.26619 18.1422C2.26658 18.1434 2.26699 18.1445 2.26742 18.1458C2.26763 18.1464 2.26785 18.147 2.26807 18.1477C2.26818 18.148 2.26835 18.1485 2.26841 18.1486C2.26858 18.1491 2.26875 18.1497 0.8497 18.6357C-0.569354 19.1218 -0.569179 19.1223 -0.569002 19.1229C-0.56894 19.123 -0.568761 19.1236 -0.568638 19.1239C-0.568392 19.1246 -0.568139 19.1254 -0.567879 19.1261C-0.567359 19.1276 -0.56681 19.1292 -0.566233 19.1309C-0.565079 19.1342 -0.563809 19.1378 -0.562424 19.1417C-0.559654 19.1495 -0.556415 19.1584 -0.552698 19.1685C-0.545274 19.1885 -0.535893 19.2131 -0.524486 19.2416C-0.501776 19.2982 -0.470441 19.3717 -0.429789 19.4565C-0.350382 19.6223 -0.225897 19.8518 -0.0466718 20.0903C0.290512 20.5389 1.00182 21.2423 2.13409 21.2423V18.2423ZM0.8497 18.6357C2.22983 18.0482 2.23021 18.0491 2.23057 18.0499C2.23068 18.0502 2.23104 18.051 2.23126 18.0515C2.2317 18.0526 2.2321 18.0535 2.23247 18.0544C2.23321 18.0562 2.2338 18.0576 2.23427 18.0587C2.23519 18.061 2.23558 18.0619 2.23544 18.0616C2.23518 18.0609 2.23285 18.0551 2.22867 18.044C2.22033 18.0219 2.20461 17.9788 2.18327 17.9142C2.1406 17.7849 2.07541 17.5691 2.00191 17.2621C1.85498 16.6484 1.67437 15.668 1.5748 14.2828C1.37569 11.5131 1.50004 7.11602 2.87321 0.789806L-0.0585193 0.153441C-1.48497 6.72512 -1.63945 11.4101 -1.41748 14.4979C-1.30651 16.0416 -1.1016 17.1838 -0.915644 17.9606C-0.822699 18.3488 -0.73461 18.6453 -0.665601 18.8544C-0.631104 18.9589 -0.601396 19.0415 -0.578265 19.1029C-0.566701 19.1335 -0.556783 19.1588 -0.548736 19.1789C-0.544712 19.1889 -0.541156 19.1976 -0.538097 19.205C-0.536567 19.2087 -0.535161 19.2121 -0.533883 19.2151C-0.533244 19.2167 -0.532637 19.2181 -0.532062 19.2195C-0.531774 19.2201 -0.531368 19.2211 -0.531224 19.2214C-0.530825 19.2224 -0.530434 19.2233 0.8497 18.6357ZM50.9433 1.5001C50.7066 1.50077 50.6383 1.41986 50.7823 1.50367C50.8912 1.56709 51.0758 1.70031 51.3155 1.94235C51.7923 2.42398 52.4205 3.26969 53.0465 4.62608C54.2976 7.33705 55.4972 11.9978 55.5 19.5581L58.5 19.5569C58.4971 11.7038 57.2542 6.58417 55.7704 3.36895C55.0288 1.76225 54.2164 0.608412 53.4474 -0.168309C53.0641 -0.555451 52.6745 -0.866102 52.2915 -1.08906C51.9435 -1.29162 51.4655 -1.50141 50.9347 -1.49989L50.9433 1.5001ZM55.5 19.5592C55.5025 21.7198 55.0246 22.6982 54.5609 23.5142C54.0402 24.4303 53.2261 25.5583 53.2286 27.5707L56.2286 27.567C56.2272 26.496 56.5517 26.0829 57.1691 24.9965C57.8434 23.8099 58.5032 22.3243 58.5 19.5558L55.5 19.5592ZM53.2286 27.5707C53.2305 29.109 53.235 35.9979 53.239 42.5033C53.241 45.7557 53.2429 48.912 53.2443 51.2552C53.245 52.4267 53.2456 53.395 53.246 54.0704C53.2462 54.4082 53.2463 54.6726 53.2464 54.8527C53.2465 54.9427 53.2465 55.0116 53.2466 55.058C53.2466 55.0813 53.2466 55.0988 53.2466 55.1106C53.2466 55.1165 53.2466 55.1209 53.2466 55.1239C53.2466 55.1254 53.2466 55.1265 53.2466 55.1273C53.2466 55.1276 53.2466 55.1279 53.2466 55.1281C53.2466 55.1283 53.2466 55.1284 54.7466 55.1275C56.2466 55.1266 56.2466 55.1265 56.2466 55.1263C56.2466 55.1262 56.2466 55.1259 56.2466 55.1255C56.2466 55.1248 56.2466 55.1236 56.2466 55.1222C56.2466 55.1192 56.2466 55.1148 56.2466 55.1089C56.2466 55.0971 56.2466 55.0795 56.2466 55.0563C56.2465 55.0099 56.2465 54.941 56.2464 54.8509C56.2463 54.6709 56.2462 54.4064 56.246 54.0687C56.2456 53.3933 56.245 52.425 56.2443 51.2534C56.2429 48.9102 56.241 45.7539 56.239 42.5014C56.235 35.9968 56.2305 29.1065 56.2286 27.567L53.2286 27.5707ZM54.7466 55.1275C53.8033 53.9612 53.8038 53.9608 53.8043 53.9604C53.8044 53.9603 53.8049 53.9599 53.8052 53.9597C53.8058 53.9592 53.8064 53.9588 53.8069 53.9583C53.8079 53.9575 53.8088 53.9568 53.8096 53.9562C53.8112 53.9549 53.8122 53.9541 53.8126 53.9538C53.8136 53.953 53.8124 53.954 53.8091 53.9564C53.8026 53.9614 53.7882 53.9722 53.7666 53.9876C53.7229 54.0186 53.6523 54.0665 53.5604 54.1211C53.3705 54.2339 53.1224 54.356 52.857 54.4306C52.3778 54.5653 51.9524 54.5459 51.5113 54.0436L49.2572 56.0233C50.6761 57.6389 52.4319 57.6664 53.6689 57.3187C54.2616 57.1521 54.7553 56.9007 55.0927 56.7002C55.2645 56.5981 55.4039 56.5044 55.5043 56.433C55.5547 56.3972 55.5959 56.3666 55.627 56.343C55.6425 56.3311 55.6556 56.321 55.6661 56.3127C55.6714 56.3086 55.676 56.3049 55.6799 56.3018C55.6819 56.3002 55.6838 56.2987 55.6854 56.2974C55.6862 56.2967 55.687 56.2961 55.6878 56.2955C55.6881 56.2952 55.6887 56.2948 55.6889 56.2946C55.6894 56.2942 55.6899 56.2938 54.7466 55.1275ZM51.8842 55.0325L51.85 0.437084L48.85 0.438963L48.8842 55.0344L51.8842 55.0325ZM49.5883 1.73022C49.8577 1.85492 50.4808 1.93231 50.8088 1.86614C51.0543 1.76244 51.4076 1.50179 51.5235 1.37235C51.5897 1.28262 51.6844 1.12331 51.7165 1.05673C51.7371 1.00898 51.7688 0.924907 51.7807 0.888956C51.8201 0.763806 51.8336 0.659937 51.835 0.650148C51.8427 0.596284 51.8458 0.552216 51.8458 0.551393C51.8469 0.537566 51.8481 0.517385 51.8474 0.528254C51.8471 0.533357 51.8462 0.54717 51.8445 0.564648C51.8412 0.598926 51.8355 0.640934 51.8252 0.688161C51.8057 0.778256 51.7647 0.909353 51.6727 1.04811C51.5737 1.19737 51.4331 1.32782 51.2629 1.41219C51.0999 1.49297 50.9734 1.50017 50.9362 1.5001L50.9419 -1.49989C50.6078 -1.50052 50.2594 -1.43872 49.9306 -1.27576C49.5946 -1.10922 49.3443 -0.868998 49.1725 -0.609987C49.0077 -0.361466 48.9309 -0.120608 48.8935 0.0516658C48.8744 0.139983 48.8642 0.216186 48.8586 0.274316C48.8557 0.30372 48.8542 0.326873 48.8535 0.338301C48.8526 0.352332 48.8537 0.334559 48.8546 0.322332C48.8546 0.322309 48.8576 0.278839 48.8652 0.225364C48.8676 0.20885 48.8717 0.182152 48.8781 0.149473C48.8835 0.121688 48.896 0.0614221 48.9195 -0.0130177C48.9313 -0.0489462 48.963 -0.132996 48.9836 -0.180731C49.0158 -0.247299 49.1105 -0.406596 49.1766 -0.496319C49.2925 -0.625752 49.6458 -0.886396 49.8913 -0.990094C50.2192 -1.05626 50.8424 -0.978871 51.1118 -0.854177L49.5883 1.73022Z" fill="black" mask="url(#path-2-inside-1_1506_20147)"/>
</svg>
