<svg width="52" height="46" viewBox="0 0 52 46" fill="none" xmlns="http://www.w3.org/2000/svg">
<path d="M6.6625 10.8571H7.48187L7.64298 10.0538C8.30415 6.75677 11.1876 4.28571 14.625 4.28571C15.9619 4.28571 17.2058 4.65467 18.2624 5.292L19.1791 5.84492L19.6683 4.89278C20.8566 2.58052 23.2553 1 26 1C28.7447 1 31.1434 2.58052 32.3317 4.89278L32.821 5.84492L33.7376 5.292C34.7942 4.65467 36.0381 4.28571 37.375 4.28571C40.8124 4.28571 43.6959 6.75677 44.357 10.0538L44.5181 10.8571H45.3375H45.5C48.5226 10.8571 51 13.346 51 16.4286C51 17.2496 50.8279 18.021 50.5167 18.7143H1.48333C1.17211 18.021 1 17.2496 1 16.4286C1 13.346 3.4774 10.8571 6.5 10.8571H6.6625ZM40.8083 40.7013L40.2443 40.9155L40.1707 41.5143L39.988 43.0023C39.988 43.0024 39.988 43.0026 39.988 43.0027C39.8458 44.151 38.8844 45 37.7508 45H14.2391C13.1135 45 12.1436 44.1489 12.0018 43.0023L11.819 41.5237L11.7452 40.9269L11.1834 40.7123C5.24517 38.4441 1 32.6287 1 25.8134C1 24.8049 1.81178 24 2.78281 24H49.2172C50.1882 24 51 24.8049 51 25.8134C51 32.6287 46.755 38.4431 40.8083 40.7013Z" stroke="black" stroke-width="2"/>
</svg>
