<svg width="36" height="35" viewBox="0 0 36 35" fill="none" xmlns="http://www.w3.org/2000/svg">
<path d="M15.3445 22.75H19.7286V7H24.1127L17.5365 0L10.9603 7H15.3445V22.75ZM32.881 12.25H26.3048V15.75H30.6889V31.5H4.38413V15.75H8.76827V12.25H2.19207C1.61069 12.25 1.05313 12.4344 0.642041 12.7626C0.230949 13.0908 0 13.5359 0 14V33.25C0 33.7141 0.230949 34.1592 0.642041 34.4874C1.05313 34.8156 1.61069 35 2.19207 35H32.881C33.4624 35 34.0199 34.8156 34.431 34.4874C34.8421 34.1592 35.0731 33.7141 35.0731 33.25V14C35.0731 13.5359 34.8421 13.0908 34.431 12.7626C34.0199 12.4344 33.4624 12.25 32.881 12.25Z" fill="#F24E1E"/>
</svg>
