<svg width="48" height="48" viewBox="0 0 48 48" fill="none" xmlns="http://www.w3.org/2000/svg">
<path d="M17.0996 37.8C17.0996 37.8 19.1696 29.1957 23.9996 24" stroke="black" stroke-width="2" stroke-linecap="round" stroke-linejoin="round"/>
<path d="M33.6273 13.0534L34.4875 22.0004C35.0464 27.8033 30.6948 32.9714 24.8919 33.528C19.1994 34.0754 14.0405 29.9147 13.4931 24.2199C13.2297 21.4859 14.0631 18.7592 15.81 16.6397C17.5568 14.5202 20.0741 13.1813 22.8081 12.9177L32.3462 11.9977C32.4998 11.9828 32.6549 11.9983 32.8025 12.0435C32.9501 12.0886 33.0873 12.1625 33.2063 12.2607C33.3253 12.359 33.4238 12.4798 33.496 12.6163C33.5683 12.7527 33.6129 12.902 33.6273 13.0557V13.0534Z" stroke="black" stroke-width="2" stroke-linecap="round" stroke-linejoin="round"/>
<path d="M24 47C36.7029 47 47 36.7029 47 24C47 11.2971 36.7029 1 24 1C11.2971 1 1 11.2971 1 24C1 36.7029 11.2971 47 24 47Z" stroke="black" stroke-width="2" stroke-linecap="round" stroke-linejoin="round"/>
</svg>
